<svg width="50" height="50" viewBox="0 0 50 50" fill="none" xmlns="http://www.w3.org/2000/svg">
<rect width="50" height="50" rx="18" fill="url(#paint0_linear_466_52)"/>
<path d="M14.84 24.6C14.84 22.88 15.16 21.37 15.8 20.07C16.46 18.77 17.35 17.77 18.47 17.07C19.59 16.37 20.84 16.02 22.22 16.02C23.4 16.02 24.43 16.26 25.31 16.74C26.21 17.22 26.9 17.85 27.38 18.63V16.26H32.51V33H27.38V30.63C26.88 31.41 26.18 32.04 25.28 32.52C24.4 33 23.37 33.24 22.19 33.24C20.83 33.24 19.59 32.89 18.47 32.19C17.35 31.47 16.46 30.46 15.8 29.16C15.16 27.84 14.84 26.32 14.84 24.6ZM27.38 24.63C27.38 23.35 27.02 22.34 26.3 21.6C25.6 20.86 24.74 20.49 23.72 20.49C22.7 20.49 21.83 20.86 21.11 21.6C20.41 22.32 20.06 23.32 20.06 24.6C20.06 25.88 20.41 26.9 21.11 27.66C21.83 28.4 22.7 28.77 23.72 28.77C24.74 28.77 25.6 28.4 26.3 27.66C27.02 26.92 27.38 25.91 27.38 24.63Z" fill="white"/>
<defs>
<linearGradient id="paint0_linear_466_52" x1="-6.4075e-07" y1="7" x2="43" y2="50" gradientUnits="userSpaceOnUse">
<stop stop-color="#FC62D0"/>
<stop offset="1" stop-color="#5C5CF8"/>
</linearGradient>
</defs>
</svg>
